<svg xmlns="http://www.w3.org/2000/svg" viewBox="0 0 481.89 201.76"><defs><style>.cls-1{fill:#a6862a;}</style></defs><g id="Layer_2" data-name="Layer 2"><g id="Layer_1-2" data-name="Layer 1"><path d="M66,127.06v21.41H49.71V104.73h18v4.88A18.61,18.61,0,0,1,80.92,104a16.84,16.84,0,0,1,12.28,4.88q5,4.88,5,13v26.58H83.53V126.73q0-10.08-7.85-10.08a9.69,9.69,0,0,0-6.76,2.64Q66,121.93,66,127.06"/><path d="M146.92,142.13a26.79,26.79,0,0,1-18.4,7q-10.56,0-17.46-6.14t-6.89-16.46q0-10.32,7-16.42a24.49,24.49,0,0,1,16.59-6.1A24.89,24.89,0,0,1,144,109.45q6.67,5.44,6.68,15v6.5H116.92a8.66,8.66,0,0,0,4,5.85,13.2,13.2,0,0,0,7.58,2.28,15.32,15.32,0,0,0,11.21-4.31ZM134.51,116.2a10.2,10.2,0,0,0-6.51-2.12,12,12,0,0,0-7,2.2,8.29,8.29,0,0,0-3.71,5.93h20.34a8.49,8.49,0,0,0-3.1-6"/><polygon points="169.33 148.47 150.97 104.65 166.12 104.65 177.66 132.21 189.21 104.65 202.66 104.65 184.3 148.47 169.33 148.47"/><path d="M245.5,142.13a26.77,26.77,0,0,1-18.4,7q-10.56,0-17.45-6.14t-6.89-16.46q0-10.32,7-16.42a24.46,24.46,0,0,1,16.59-6.1,24.91,24.91,0,0,1,16.25,5.45q6.67,5.44,6.67,15v6.5H215.51a8.63,8.63,0,0,0,4,5.85,13.17,13.17,0,0,0,7.58,2.28,15.3,15.3,0,0,0,11.2-4.31ZM233.09,116.2a10.15,10.15,0,0,0-6.5-2.12,12.1,12.1,0,0,0-7,2.2,8.31,8.31,0,0,0-3.7,5.93h20.33a8.45,8.45,0,0,0-3.1-6"/><path d="M282.36,117.16q-5.78,0-8.62,3.86t-2.84,10.21v17.24H256.27V104.73H270.9v5.77a21.87,21.87,0,0,1,6.25-4.55,17.66,17.66,0,0,1,7.63-2l.08,13.16Z"/><path d="M21.6,180.25a11.5,11.5,0,0,1-8.93,4,12.32,12.32,0,0,1-9-3.62A12.93,12.93,0,0,1,0,171a13.64,13.64,0,0,1,3.77-9.92,11.72,11.72,0,0,1,8.62-3.87,9.9,9.9,0,0,1,8.05,4v-3.59H28v23.72a15.81,15.81,0,0,1-1.27,6.48,11.12,11.12,0,0,1-3.39,4.45,15.42,15.42,0,0,1-9.91,3.34,20.67,20.67,0,0,1-6.2-1,17.72,17.72,0,0,1-5.54-2.8l2.93-5.72a12.92,12.92,0,0,0,7.92,2.83,9.85,9.85,0,0,0,6.6-2.07q2.43-2.09,2.43-6.58m-1.06-9.58a7.08,7.08,0,0,0-1.82-5.14,6,6,0,0,0-4.5-1.87,6.43,6.43,0,0,0-4.63,1.87,6.75,6.75,0,0,0-1.95,5.11,7.29,7.29,0,0,0,1.9,5.24,6.12,6.12,0,0,0,4.62,2,5.93,5.93,0,0,0,4.56-2,7.42,7.42,0,0,0,1.82-5.23"/><path d="M36.25,152.47a4.52,4.52,0,1,1,3.16,1.29,4.29,4.29,0,0,1-3.16-1.29m7,32.38H35.61V157.64H43.2Z"/><polygon points="58.12 184.85 47.35 157.59 55.24 157.59 62.02 174.74 68.8 157.59 76.69 157.59 65.91 184.85 58.12 184.85"/><path d="M104.41,180.91a15.22,15.22,0,0,1-10.8,4.35,14.3,14.3,0,0,1-10.24-3.82,13.41,13.41,0,0,1-4.05-10.24A13.2,13.2,0,0,1,83.44,161a13.92,13.92,0,0,1,9.74-3.8,14.16,14.16,0,0,1,9.54,3.39,11.68,11.68,0,0,1,3.92,9.31v4.05H86.81a5.39,5.39,0,0,0,2.32,3.64A7.42,7.42,0,0,0,93.58,179a8.76,8.76,0,0,0,6.58-2.68Zm-7.28-16.14a5.79,5.79,0,0,0-3.82-1.31,6.86,6.86,0,0,0-4.13,1.36,5.25,5.25,0,0,0-2.17,3.7H99a5.43,5.43,0,0,0-1.82-3.75"/><path d="M143.82,172.31V157.64h7.64v27.21h-7.64v-3.59a8.61,8.61,0,0,1-7.31,4,10.68,10.68,0,0,1-7.52-2.81q-3-2.8-3-8.32V157.64h7.64v14.82q0,6.27,4.6,6.27a5.43,5.43,0,0,0,4-1.64,6.43,6.43,0,0,0,1.67-4.78"/><path d="M174.88,157.18a11.33,11.33,0,0,1,8.47,4,14,14,0,0,1,3.72,10,14.3,14.3,0,0,1-3.72,10.06,11.47,11.47,0,0,1-8.7,4,9.59,9.59,0,0,1-8-4v13.41H159v-37h7.59v3a11.32,11.32,0,0,1,8.25-3.49m-8.35,14.09a7.92,7.92,0,0,0,1.85,5.42,5.73,5.73,0,0,0,4.47,2.09,6.13,6.13,0,0,0,4.61-2.09,7.58,7.58,0,0,0,2-5.39,8.18,8.18,0,0,0-1.92-5.52,5.9,5.9,0,0,0-4.61-2.22,5.68,5.68,0,0,0-4.52,2.2,8.29,8.29,0,0,0-1.85,5.51"/><path d="M205.87,162.15a4.78,4.78,0,0,1-1.46,3.56,5.41,5.41,0,0,1-7.35,0,5.06,5.06,0,0,1,0-7.13,5.38,5.38,0,0,1,7.35,0,4.82,4.82,0,0,1,1.46,3.57m-7.55,0a2.8,2.8,0,0,0,.68,1.94,2.38,2.38,0,0,0,3.47,0,3.12,3.12,0,0,0,0-3.89,2.36,2.36,0,0,0-3.47,0,2.81,2.81,0,0,0-.68,2"/><path d="M209.63,161.59V167h-2.71v-9.72h2.71v1.08a3.79,3.79,0,0,1,2.77-1.24,3.42,3.42,0,0,1,2.57,1.08,4,4,0,0,1,1,2.89V167H213.3v-5.49c0-1.5-.55-2.24-1.64-2.24a2,2,0,0,0-1.42.58,2.3,2.3,0,0,0-.61,1.73"/><path d="M223,170.84a3.94,3.94,0,0,1-2.69-1.16l1.23-2a2.06,2.06,0,0,0,1.41.67.81.81,0,0,0,.65-.37,1.32,1.32,0,0,0,.27-.79q0-.42-3.76-9.9H223l2.37,6.05,2.36-6.05h2.9l-4.52,11.45a3.25,3.25,0,0,1-1.24,1.55,3.31,3.31,0,0,1-1.87.55"/><path d="M240.74,162.15a4.82,4.82,0,0,1-1.46,3.56,5.41,5.41,0,0,1-7.35,0,5.06,5.06,0,0,1,0-7.13,5.38,5.38,0,0,1,7.35,0,4.86,4.86,0,0,1,1.46,3.57m-7.55,0a2.8,2.8,0,0,0,.68,1.94,2.38,2.38,0,0,0,3.47,0,3.16,3.16,0,0,0,0-3.89,2.36,2.36,0,0,0-3.47,0,2.81,2.81,0,0,0-.68,2"/><path d="M248.06,162.53v-5.24h2.73V167h-2.73v-1.28a3.08,3.08,0,0,1-2.61,1.42,3.77,3.77,0,0,1-2.68-1,3.83,3.83,0,0,1-1.09-3v-5.89h2.73v5.29c0,1.5.55,2.24,1.64,2.24a1.92,1.92,0,0,0,1.41-.58,2.3,2.3,0,0,0,.6-1.71"/><path d="M257.51,159.67a2.06,2.06,0,0,0-1.81.86,4,4,0,0,0-.59,2.27V167H252.4v-9.72h2.71v1.28a4.36,4.36,0,0,1,1.31-1,3.45,3.45,0,0,1,1.59-.43l0,2.54Z"/><path d="M202.22,201.76a8.77,8.77,0,0,1-6.57-3.12,11,11,0,0,1-2.89-7.75,10.5,10.5,0,0,1,2.82-7.57,8.8,8.8,0,0,1,6.59-2.95,7.88,7.88,0,0,1,6.16,2.66V172.85h5.79v28.6h-5.79v-2.74a7.49,7.49,0,0,1-6.11,3m-3.64-10.64a5.74,5.74,0,0,0,1.51,4.11,4.69,4.69,0,0,0,3.5,1.6,4.38,4.38,0,0,0,3.41-1.6,6,6,0,0,0,1.41-4.13,6.31,6.31,0,0,0-1.41-4.2,4.32,4.32,0,0,0-3.45-1.68,4.47,4.47,0,0,0-3.5,1.7,6.18,6.18,0,0,0-1.47,4.2"/><path d="M230.84,185.8a4.37,4.37,0,0,0-3.85,1.83,8.34,8.34,0,0,0-1.27,4.84v9h-5.79V180.72h5.79v2.73a9.54,9.54,0,0,1,2.79-2.16,7.55,7.55,0,0,1,3.41-.92l0,5.43Z"/><path d="M254.08,198.44a11.6,11.6,0,0,1-8.23,3.32,10.91,10.91,0,0,1-7.8-2.91A10.21,10.21,0,0,1,235,191a10,10,0,0,1,3.14-7.78,10.56,10.56,0,0,1,7.42-2.89,10.72,10.72,0,0,1,7.26,2.58,8.89,8.89,0,0,1,3,7.09v3.09H240.67a4.12,4.12,0,0,0,1.77,2.77,5.7,5.7,0,0,0,3.39,1.08,6.68,6.68,0,0,0,5-2Zm-5.55-12.29a4.34,4.34,0,0,0-2.91-1,5.17,5.17,0,0,0-3.14,1,4,4,0,0,0-1.66,2.81h9.1a4.1,4.1,0,0,0-1.39-2.85"/><path d="M277.9,201.45h-5.43V199a6.83,6.83,0,0,1-5.53,2.81,8.23,8.23,0,0,1-5.53-1.91,6.36,6.36,0,0,1-2.24-5.09,5.39,5.39,0,0,1,2.31-4.76,11.11,11.11,0,0,1,6.32-1.58h4.32v-.11q0-3.31-3.51-3.32a9.46,9.46,0,0,0-3.18.6,10.47,10.47,0,0,0-2.83,1.48L260,183.34a15.45,15.45,0,0,1,9.33-3,9.63,9.63,0,0,1,6.16,1.89c1.6,1.26,2.39,3.25,2.39,6Zm-5.82-7.9v-1h-3.62c-2.31,0-3.47.72-3.47,2.16a2,2,0,0,0,.83,1.71,4,4,0,0,0,2.37.6,4.23,4.23,0,0,0,2.72-1,3.07,3.07,0,0,0,1.17-2.52"/><path d="M302.57,190.27v11.18h-5.82V190.12a6.81,6.81,0,0,0-.75-3.62,2.68,2.68,0,0,0-2.43-1.16,4.16,4.16,0,0,0-3,1.25,4.91,4.91,0,0,0-1.29,3.68v11.18h-5.78V180.71h5.78v2.36a7.15,7.15,0,0,1,5.47-2.7,6,6,0,0,1,3.57,1.15,7.56,7.56,0,0,1,2.41,2.82,8.06,8.06,0,0,1,3.22-2.93,8.69,8.69,0,0,1,4.06-1,8.07,8.07,0,0,1,5.9,2.18,8.39,8.39,0,0,1,2.23,6.3v12.6h-5.82V190.12c0-3.19-1.16-4.78-3.5-4.78a4.16,4.16,0,0,0-3,1.25,4.94,4.94,0,0,0-1.27,3.68"/><path d="M350.51,177.6a11.44,11.44,0,0,1-3.36,8.16,11.56,11.56,0,0,1-8.2,3.33,12.08,12.08,0,0,1-4.6-.86,11,11,0,0,1-3.62-2.39,10.85,10.85,0,0,1-2.37-3.6,12.18,12.18,0,0,1-.85-4.59,11.22,11.22,0,0,1,.9-4.49,11.18,11.18,0,0,1,6.12-6.06,11.56,11.56,0,0,1,4.54-.88,12.11,12.11,0,0,1,4.6.85,10.83,10.83,0,0,1,3.62,2.37,10.67,10.67,0,0,1,2.36,3.6,11.91,11.91,0,0,1,.86,4.56m-2.65.17a10.43,10.43,0,0,0-.66-3.79,8.79,8.79,0,0,0-1.84-2.93,7.86,7.86,0,0,0-2.79-1.86,9.83,9.83,0,0,0-7.16.05,8.34,8.34,0,0,0-2.81,1.95,8.44,8.44,0,0,0-1.81,2.86,9.61,9.61,0,0,0-.63,3.49,10.35,10.35,0,0,0,.66,3.76,8.64,8.64,0,0,0,1.84,2.93,8,8,0,0,0,2.79,1.88,9.69,9.69,0,0,0,7.18-.06,8.5,8.5,0,0,0,4.6-4.79,9.61,9.61,0,0,0,.63-3.49m-3.47,5.38a.51.51,0,0,1,0,.22.31.31,0,0,1-.22.15,2.59,2.59,0,0,1-.5.07c-.22,0-.51,0-.89,0s-.6,0-.8,0a1.51,1.51,0,0,1-.5-.1.75.75,0,0,1-.3-.2,1.06,1.06,0,0,1-.16-.37l-.62-2a3.43,3.43,0,0,0-.83-1.52,2.19,2.19,0,0,0-1.46-.42h-.79v4.11a.46.46,0,0,1-.25.45,3.86,3.86,0,0,1-1.17.11,4.26,4.26,0,0,1-1.2-.11.45.45,0,0,1-.3-.45V172.51a1.49,1.49,0,0,1,.33-1,1.23,1.23,0,0,1,1-.36H339a9.2,9.2,0,0,1,2.07.2,4.26,4.26,0,0,1,1.53.65,2.9,2.9,0,0,1,1,1.1,3.63,3.63,0,0,1,.32,1.57,3,3,0,0,1-.76,2.2,4.3,4.3,0,0,1-2.06,1.1,3.78,3.78,0,0,1,1.32.79,4.46,4.46,0,0,1,1.06,1.68l.7,1.88a4.26,4.26,0,0,1,.21.85M340.75,175a2.11,2.11,0,0,0-.09-.62,1.1,1.1,0,0,0-.34-.51,1.72,1.72,0,0,0-.66-.34,3.78,3.78,0,0,0-1-.12h-1.35v3.29h1.29a2.35,2.35,0,0,0,1.7-.47,1.63,1.63,0,0,0,.48-1.23"/><path class="cls-1" d="M112.13,0S141,26.91,222.6,23.51s116.41-6,116.41-6,60.07-8.49,81,29.18c21.7,39-19.54,83.85-26.34,90.36a69.72,69.72,0,0,1-53.54,20C311,155.51,310,121,316.17,111.89c0,0,.2,37.33,32.77,33S407,103.11,410.13,77.33,397.67,30,344.69,32s-117.25,5.1-130.57,4.25-86.69-2-102-36.26"/><path d="M477.24,77.33c-9.58-17.21-30.5-21-44.51-21.53a57.94,57.94,0,0,1,1.82,11c28.87,1.87,36.64,16.08,34.64,32.61C467,118,449.42,144.31,426.05,148c-18.56,2.91-22.51-10.59-22.51-10.59-.53,10.09,5.16,18.81,16.18,19.42a54.06,54.06,0,0,0,39.91-14.22c4.89-4.69,33.23-37.18,17.61-65.26"/><path d="M258,53.66c65.59-2.73,122.33-4.22,133.27-4.23l-.65-.45-4.11-2.34c-8.5-4.16-20.42-6.33-35.23-6.33-2,0-4.16,0-6.3.13-13.88.51-28.62,1.12-42.88,1.7-34,1.38-66.16,2.69-81.44,2.69-3.09,0-5.42,0-7.11-.16l-3.5-.18C201,44,184.26,43.2,166.59,39.83,181.86,46,213.07,55.53,258,53.66"/><path d="M357.23,83.21c-5.72.5-15.94,1.57-32.17,2.13l-1.34,0c-11.31.36-25.42.46-42.84,0A159.74,159.74,0,0,1,230,75.22s24.81,22,78.13,20.53l8.46-.27h0c2.47-.08,6.28-.23,7.9-.3h0l.67,0h.1c39.16-1.61,61.58-4.14,70.79-.35a72.26,72.26,0,0,0,4.27-11.43c-12.17-1.46-34.74-.89-43.12-.16"/><path d="M402,68.31l-132.78,2.9s-37.47,0-65-11.1c0,0,30.56,19.71,73.75,21,43.64,1.27,66.58-1.28,76.35-2.13,9.37-.81,36.49-1.43,47,.76.23-1.15.41-2.29.55-3.4a39.53,39.53,0,0,0,.19-8"/><path d="M401.49,65A23.81,23.81,0,0,0,396,53.54a26,26,0,0,0-2.1-2.1c-19.22,1.1-85.26,4.71-130.75,5.43-53.75.85-76-7.44-76-7.44,26.36,18.48,79,18.48,79,18.48Z"/></g></g></svg>